<?xml version="1.0" encoding="UTF-8"?>
<svg xmlns="http://www.w3.org/2000/svg" xmlns:xlink="http://www.w3.org/1999/xlink" width="576pt" height="576pt" viewBox="0 0 576 576">
<path fill-rule="nonzero" fill="rgb(13.725281%, 62.35199%, 56.861877%)" fill-opacity="1" d="M 16.300781 16.300781 L 559.699219 16.300781 L 559.699219 559.699219 L 16.300781 559.699219 Z M 16.300781 16.300781 "/>
<path fill-rule="nonzero" fill="rgb(100%, 100%, 100%)" fill-opacity="1" d="M 450.605469 160.121094 L 424.171875 274.394531 L 398 160.121094 L 367.164062 160.121094 L 349.542969 424.171875 L 388.414062 424.171875 L 394.113281 307.304688 L 424.171875 424.171875 L 454.230469 307.304688 L 459.933594 424.171875 L 498.800781 424.171875 L 481.179688 160.121094 L 450.605469 160.121094 M 110.882812 257.292969 L 141.203125 257.292969 L 141.203125 328.554688 L 110.882812 328.554688 L 110.882812 424.433594 L 73.050781 424.433594 L 73.050781 160.121094 L 152.863281 160.121094 L 159.34375 229.566406 L 110.882812 229.566406 L 110.882812 257.292969 M 250.816406 151.566406 C 250.816406 151.566406 236.042969 151.566406 222.308594 162.453125 C 222.308594 162.453125 209.355469 173.074219 199.246094 192.511719 C 199.246094 192.511719 177.738281 233.453125 177.738281 291.238281 C 177.738281 291.238281 177.738281 348.765625 199.246094 389.707031 C 199.246094 389.707031 209.355469 408.882812 222.308594 419.507812 C 222.308594 419.507812 236.042969 430.652344 250.816406 430.652344 C 250.816406 430.652344 265.84375 430.652344 279.320312 419.507812 C 279.320312 419.507812 292.535156 408.882812 302.640625 389.707031 C 302.640625 389.707031 324.148438 348.765625 324.148438 291.238281 C 324.148438 291.238281 324.148438 233.453125 302.640625 192.511719 C 302.640625 192.511719 292.535156 173.074219 279.320312 162.453125 C 279.320312 162.453125 265.585938 151.566406 250.816406 151.566406 Z M 250.816406 224.902344 C 250.816406 224.902344 265.324219 224.902344 275.433594 244.335938 C 275.433594 244.335938 285.539062 263.769531 285.539062 291.238281 C 285.539062 291.238281 285.539062 318.707031 275.433594 338.140625 C 275.433594 338.140625 265.324219 357.316406 250.816406 357.316406 C 250.816406 357.316406 236.5625 357.316406 226.199219 338.140625 C 226.199219 338.140625 216.089844 318.707031 216.089844 291.238281 C 216.089844 291.238281 216.089844 263.769531 226.199219 244.335938 C 226.199219 244.335938 236.5625 224.902344 250.816406 224.902344 Z M 250.816406 224.902344 "/>
<path fill-rule="nonzero" fill="rgb(100%, 100%, 100%)" fill-opacity="1" d="M 439.203125 449.828125 L 439.203125 513.574219 L 448.789062 513.574219 L 448.789062 449.828125 L 439.203125 449.828125 M 417.175781 469.519531 L 417.175781 489.992188 C 417.175781 489.992188 417.175781 496.46875 415.101562 500.617188 C 415.101562 500.617188 412.253906 506.316406 405.515625 506.316406 C 405.515625 506.316406 401.109375 506.058594 399.296875 502.949219 C 399.296875 502.949219 397.484375 499.839844 397.484375 492.324219 L 397.484375 469.519531 L 387.894531 469.519531 L 387.894531 495.433594 C 387.894531 495.433594 387.894531 504.761719 392.039062 509.6875 C 392.039062 509.6875 396.1875 514.609375 404.480469 514.609375 L 411.992188 513.054688 L 417.4375 508.910156 L 417.4375 513.574219 L 427.023438 513.574219 L 427.023438 469.519531 L 417.175781 469.519531 M 337.363281 449.828125 L 337.363281 513.574219 L 347.210938 513.574219 L 347.210938 493.101562 C 347.210938 493.101562 347.210938 486.882812 349.285156 482.738281 C 349.285156 482.738281 352.132812 476.777344 358.871094 476.777344 C 358.871094 476.777344 363.277344 477.035156 365.089844 480.402344 C 365.089844 480.402344 366.90625 483.515625 366.90625 490.769531 L 366.90625 513.574219 L 376.492188 513.574219 L 376.492188 487.660156 C 376.492188 487.660156 376.492188 478.332031 372.347656 473.40625 C 372.347656 473.40625 367.941406 468.484375 359.910156 468.484375 C 359.910156 468.484375 351.875 468.484375 347.210938 473.925781 L 347.210938 449.828125 L 337.363281 449.828125 M 329.589844 503.207031 L 328.292969 503.984375 L 320.519531 506.316406 C 320.519531 506.316406 314.042969 506.316406 310.414062 501.652344 C 310.414062 501.652344 307.5625 497.507812 307.5625 491.546875 C 307.5625 491.546875 307.5625 485.585938 310.675781 481.441406 C 310.675781 481.441406 314.300781 476.777344 320.003906 476.777344 C 320.003906 476.777344 323.890625 476.777344 328.035156 478.589844 L 329.332031 479.109375 L 330.109375 470.558594 L 329.589844 470.296875 L 319.742188 468.484375 C 319.742188 468.484375 309.898438 468.484375 303.675781 474.960938 C 303.675781 474.960938 297.457031 481.441406 297.457031 491.546875 C 297.457031 491.546875 297.457031 501.394531 303.675781 507.871094 C 303.675781 507.871094 310.15625 514.609375 319.742188 514.609375 L 329.847656 512.796875 L 330.367188 512.535156 L 329.589844 503.207031 M 290.460938 479.625 L 291.5 470.558594 L 290.722656 470.296875 L 280.613281 468.484375 C 280.613281 468.484375 273.359375 468.484375 269.214844 472.371094 C 269.214844 472.371094 265.066406 476 265.066406 482.476562 C 265.066406 482.476562 265.066406 487.140625 268.695312 490.511719 L 275.949219 495.175781 L 281.132812 497.765625 C 281.132812 497.765625 283.207031 499.320312 283.207031 501.394531 C 283.207031 501.394531 283.207031 504.503906 280.097656 505.800781 L 276.210938 506.316406 L 272.0625 505.800781 L 267.140625 503.46875 L 265.585938 502.6875 L 265.066406 511.757812 L 265.585938 512.019531 C 265.585938 512.019531 270.25 514.609375 277.765625 514.609375 C 277.765625 514.609375 283.984375 514.609375 288.390625 511.242188 C 288.390625 511.242188 293.3125 507.355469 293.3125 500.617188 C 293.3125 500.617188 293.3125 495.175781 289.683594 491.804688 C 289.683594 491.804688 287.351562 489.734375 282.167969 487.402344 L 276.988281 484.550781 C 276.988281 484.550781 275.171875 482.996094 275.171875 480.921875 C 275.171875 480.921875 275.171875 478.847656 277.246094 477.8125 L 281.652344 476.777344 L 285.277344 477.292969 L 289.167969 478.847656 L 290.460938 479.625 M 218.421875 449.828125 L 218.421875 513.574219 L 228.011719 513.574219 L 228.011719 493.101562 C 228.011719 493.101562 228.011719 486.882812 230.085938 482.738281 C 230.085938 482.738281 232.933594 476.777344 239.671875 476.777344 C 239.671875 476.777344 244.078125 477.035156 245.890625 480.402344 C 245.890625 480.402344 247.707031 483.515625 247.707031 490.769531 L 247.707031 513.574219 L 257.292969 513.574219 L 257.292969 487.660156 C 257.292969 487.660156 257.292969 478.332031 253.148438 473.40625 C 253.148438 473.40625 249 468.484375 240.707031 468.484375 C 240.707031 468.484375 232.933594 468.484375 228.011719 473.925781 L 228.011719 449.828125 L 218.421875 449.828125 M 209.09375 478.589844 L 210.132812 479.109375 L 211.167969 470.558594 L 210.390625 470.296875 C 210.390625 470.296875 206.246094 468.484375 200.542969 468.484375 C 200.542969 468.484375 190.695312 468.484375 184.476562 474.960938 C 184.476562 474.960938 178.257812 481.441406 178.257812 491.546875 C 178.257812 491.546875 178.257812 501.394531 184.738281 507.871094 C 184.738281 507.871094 190.957031 514.609375 200.542969 514.609375 L 210.648438 512.796875 L 211.425781 512.535156 L 210.648438 503.207031 L 209.355469 503.984375 L 201.578125 506.316406 C 201.578125 506.316406 194.84375 506.316406 191.472656 501.652344 C 191.472656 501.652344 188.363281 497.507812 188.363281 491.546875 C 188.363281 491.546875 188.363281 485.585938 191.472656 481.441406 C 191.472656 481.441406 195.101562 476.777344 201.0625 476.777344 L 209.09375 478.589844 M 150.789062 468.484375 C 150.789062 468.484375 140.945312 468.484375 134.722656 474.960938 C 134.722656 474.960938 128.503906 481.441406 128.503906 491.546875 C 128.503906 491.546875 128.503906 501.394531 134.984375 507.871094 C 134.984375 507.871094 141.203125 514.609375 150.789062 514.609375 C 150.789062 514.609375 160.378906 514.609375 166.855469 507.871094 C 166.855469 507.871094 173.074219 501.394531 173.074219 491.546875 C 173.074219 491.546875 173.074219 481.441406 167.117188 474.960938 C 167.117188 474.960938 160.636719 468.484375 150.789062 468.484375 Z M 150.789062 476.777344 C 150.789062 476.777344 156.492188 476.777344 159.859375 481.441406 C 159.859375 481.441406 162.96875 485.847656 162.96875 491.546875 C 162.96875 491.546875 162.96875 497.507812 160.121094 501.652344 C 160.121094 501.652344 156.75 506.316406 150.789062 506.316406 C 150.789062 506.316406 145.089844 506.316406 141.722656 501.652344 C 141.722656 501.652344 138.613281 497.507812 138.613281 491.546875 C 138.613281 491.546875 138.613281 485.847656 141.722656 481.441406 C 141.722656 481.441406 145.347656 476.777344 150.789062 476.777344 Z M 108.8125 454.230469 L 108.8125 478.070312 L 83.15625 478.070312 L 83.15625 454.230469 L 73.050781 454.230469 L 73.050781 513.574219 L 83.15625 513.574219 L 83.15625 487.402344 L 108.8125 487.402344 L 108.8125 513.574219 L 118.917969 513.574219 L 118.917969 454.230469 L 108.8125 454.230469 M 479.109375 468.484375 C 479.109375 468.484375 469.78125 468.484375 464.078125 474.703125 C 464.078125 474.703125 458.378906 480.921875 458.378906 490.769531 C 458.378906 490.769531 458.378906 502.171875 464.339844 508.390625 C 464.339844 508.390625 470.039062 514.609375 480.921875 514.609375 L 493.621094 512.277344 L 495.175781 511.5 L 495.175781 501.132812 L 493.621094 502.429688 L 488.695312 505.023438 L 481.441406 506.316406 C 481.441406 506.316406 476.515625 506.316406 472.890625 503.207031 C 472.890625 503.207031 469.003906 499.839844 468.484375 494.398438 L 498.542969 494.398438 L 498.542969 493.359375 C 498.542969 493.359375 498.542969 468.484375 479.109375 468.484375 Z M 478.847656 476.777344 C 478.847656 476.777344 483.253906 476.777344 485.847656 479.886719 C 485.847656 479.886719 488.179688 482.476562 488.4375 486.625 L 468.742188 486.625 C 468.742188 486.625 469.261719 482.996094 471.074219 480.402344 C 471.074219 480.402344 473.925781 476.777344 478.847656 476.777344 Z M 478.847656 476.777344 "/>
</svg>
